{
    "asset" : {
        "generator" : "Khronos glTF Blender I/O v1.7.33",
        "version" : "2.0"
    },
    "scene" : 0,
    "scenes" : [
        {
            "name" : "Scene",
            "nodes" : [
                0
            ]
        }
    ],
    "nodes" : [
        {
            "mesh" : 0,
            "name" : "ground",
            "scale" : [
                1.0597333908081055,
                1.0597333908081055,
                1.0597333908081055
            ],
            "translation" : [
                2.061028003692627,
                -6.4896111488342285,
                2.049267292022705
            ]
        }
    ],
    "materials" : [
        {
            "doubleSided" : true,
            "name" : "ground",
            "pbrMetallicRoughness" : {
                "baseColorFactor" : [
                    0.04846397042274475,
                    0.14240002632141113,
                    0.027409950271248817,
                    1
                ],
                "metallicFactor" : 0,
                "roughnessFactor" : 0.5
            }
        },
        {
            "doubleSided" : true,
            "name" : "mountain",
            "pbrMetallicRoughness" : {
                "baseColorFactor" : [
                    0.03012007661163807,
                    0.08001109957695007,
                    0.013980015181005001,
                    1
                ],
                "metallicFactor" : 0,
                "roughnessFactor" : 0.5
            }
        },
        {
            "doubleSided" : true,
            "name" : "snow",
            "pbrMetallicRoughness" : {
                "baseColorFactor" : [
                    0.19554288685321808,
                    0.3031964600086212,
                    0.16906137764453888,
                    1
                ],
                "metallicFactor" : 0,
                "roughnessFactor" : 0.5
            }
        },
        {
            "doubleSided" : true,
            "name" : "nft",
            "pbrMetallicRoughness" : {
                "baseColorFactor" : [
                    0.1746475100517273,
                    0.09530749917030334,
                    0.1714411824941635,
                    1
                ],
                "metallicFactor" : 0,
                "roughnessFactor" : 0.5
            }
        },
        {
            "doubleSided" : true,
            "name" : "area",
            "pbrMetallicRoughness" : {
                "baseColorFactor" : [
                    0.2529413104057312,
                    0.13639488816261292,
                    0.24821773171424866,
                    1
                ],
                "metallicFactor" : 0,
                "roughnessFactor" : 0.5
            }
        },
        {
            "doubleSided" : true,
            "name" : "border",
            "pbrMetallicRoughness" : {
                "baseColorFactor" : [
                    0.013410224579274654,
                    0.013410224579274654,
                    0.013410224579274654,
                    1
                ],
                "metallicFactor" : 0,
                "roughnessFactor" : 0.5
            }
        }
    ],
    "meshes" : [
        {
            "name" : "Cube.004",
            "primitives" : [
                {
                    "attributes" : {
                        "POSITION" : 0,
                        "NORMAL" : 1,
                        "TEXCOORD_0" : 2
                    },
                    "indices" : 3,
                    "material" : 0
                },
                {
                    "attributes" : {
                        "POSITION" : 4,
                        "NORMAL" : 5,
                        "TEXCOORD_0" : 6
                    },
                    "indices" : 7,
                    "material" : 1
                },
                {
                    "attributes" : {
                        "POSITION" : 8,
                        "NORMAL" : 9,
                        "TEXCOORD_0" : 10
                    },
                    "indices" : 11,
                    "material" : 2
                },
                {
                    "attributes" : {
                        "POSITION" : 12,
                        "NORMAL" : 13,
                        "TEXCOORD_0" : 14
                    },
                    "indices" : 15,
                    "material" : 3
                },
                {
                    "attributes" : {
                        "POSITION" : 16,
                        "NORMAL" : 17,
                        "TEXCOORD_0" : 18
                    },
                    "indices" : 19,
                    "material" : 4
                },
                {
                    "attributes" : {
                        "POSITION" : 20,
                        "NORMAL" : 21,
                        "TEXCOORD_0" : 22
                    },
                    "indices" : 23,
                    "material" : 5
                }
            ]
        }
    ],
    "accessors" : [
        {
            "bufferView" : 0,
            "componentType" : 5126,
            "count" : 9238,
            "max" : [
                40.33004379272461,
                4.92151403427124,
                40.299461364746094
            ],
            "min" : [
                -40.28622817993164,
                -0.33252665400505066,
                -40.31660461425781
            ],
            "type" : "VEC3"
        },
        {
            "bufferView" : 1,
            "componentType" : 5126,
            "count" : 9238,
            "type" : "VEC3"
        },
        {
            "bufferView" : 2,
            "componentType" : 5126,
            "count" : 9238,
            "type" : "VEC2"
        },
        {
            "bufferView" : 3,
            "componentType" : 5123,
            "count" : 11424,
            "type" : "SCALAR"
        },
        {
            "bufferView" : 4,
            "componentType" : 5126,
            "count" : 1114,
            "max" : [
                22.89861297607422,
                4.875186920166016,
                30.385839462280273
            ],
            "min" : [
                -31.49213218688965,
                0.35191166400909424,
                -24.080535888671875
            ],
            "type" : "VEC3"
        },
        {
            "bufferView" : 5,
            "componentType" : 5126,
            "count" : 1114,
            "type" : "VEC3"
        },
        {
            "bufferView" : 6,
            "componentType" : 5126,
            "count" : 1114,
            "type" : "VEC2"
        },
        {
            "bufferView" : 7,
            "componentType" : 5123,
            "count" : 1488,
            "type" : "SCALAR"
        },
        {
            "bufferView" : 8,
            "componentType" : 5126,
            "count" : 66,
            "max" : [
                20.153289794921875,
                4.851134300231934,
                30.246511459350586
            ],
            "min" : [
                -21.548337936401367,
                0.5745952129364014,
                -17.914533615112305
            ],
            "type" : "VEC3"
        },
        {
            "bufferView" : 9,
            "componentType" : 5126,
            "count" : 66,
            "type" : "VEC3"
        },
        {
            "bufferView" : 10,
            "componentType" : 5126,
            "count" : 66,
            "type" : "VEC2"
        },
        {
            "bufferView" : 11,
            "componentType" : 5123,
            "count" : 84,
            "type" : "SCALAR"
        },
        {
            "bufferView" : 12,
            "componentType" : 5126,
            "count" : 4,
            "max" : [
                40.33004379272461,
                -0.2729465067386627,
                40.299461364746094
            ],
            "min" : [
                -40.28622817993164,
                -0.33252665400505066,
                -40.31660461425781
            ],
            "type" : "VEC3"
        },
        {
            "bufferView" : 13,
            "componentType" : 5126,
            "count" : 4,
            "type" : "VEC3"
        },
        {
            "bufferView" : 14,
            "componentType" : 5126,
            "count" : 4,
            "type" : "VEC2"
        },
        {
            "bufferView" : 15,
            "componentType" : 5123,
            "count" : 6,
            "type" : "SCALAR"
        },
        {
            "bufferView" : 16,
            "componentType" : 5126,
            "count" : 26,
            "max" : [
                19.441551208496094,
                1.2429120540618896,
                16.148561477661133
            ],
            "min" : [
                -33.673912048339844,
                0.355280339717865,
                -26.42981719970703
            ],
            "type" : "VEC3"
        },
        {
            "bufferView" : 17,
            "componentType" : 5126,
            "count" : 26,
            "type" : "VEC3"
        },
        {
            "bufferView" : 18,
            "componentType" : 5126,
            "count" : 26,
            "type" : "VEC2"
        },
        {
            "bufferView" : 19,
            "componentType" : 5123,
            "count" : 60,
            "type" : "SCALAR"
        },
        {
            "bufferView" : 20,
            "componentType" : 5126,
            "count" : 104,
            "max" : [
                19.668169021606445,
                1.2530840635299683,
                16.360313415527344
            ],
            "min" : [
                -33.78890609741211,
                0.3546784818172455,
                -26.646360397338867
            ],
            "type" : "VEC3"
        },
        {
            "bufferView" : 21,
            "componentType" : 5126,
            "count" : 104,
            "type" : "VEC3"
        },
        {
            "bufferView" : 22,
            "componentType" : 5126,
            "count" : 104,
            "type" : "VEC2"
        },
        {
            "bufferView" : 23,
            "componentType" : 5123,
            "count" : 156,
            "type" : "SCALAR"
        }
    ],
    "bufferViews" : [
        {
            "buffer" : 0,
            "byteLength" : 110856,
            "byteOffset" : 0
        },
        {
            "buffer" : 0,
            "byteLength" : 110856,
            "byteOffset" : 110856
        },
        {
            "buffer" : 0,
            "byteLength" : 73904,
            "byteOffset" : 221712
        },
        {
            "buffer" : 0,
            "byteLength" : 22848,
            "byteOffset" : 295616
        },
        {
            "buffer" : 0,
            "byteLength" : 13368,
            "byteOffset" : 318464
        },
        {
            "buffer" : 0,
            "byteLength" : 13368,
            "byteOffset" : 331832
        },
        {
            "buffer" : 0,
            "byteLength" : 8912,
            "byteOffset" : 345200
        },
        {
            "buffer" : 0,
            "byteLength" : 2976,
            "byteOffset" : 354112
        },
        {
            "buffer" : 0,
            "byteLength" : 792,
            "byteOffset" : 357088
        },
        {
            "buffer" : 0,
            "byteLength" : 792,
            "byteOffset" : 357880
        },
        {
            "buffer" : 0,
            "byteLength" : 528,
            "byteOffset" : 358672
        },
        {
            "buffer" : 0,
            "byteLength" : 168,
            "byteOffset" : 359200
        },
        {
            "buffer" : 0,
            "byteLength" : 48,
            "byteOffset" : 359368
        },
        {
            "buffer" : 0,
            "byteLength" : 48,
            "byteOffset" : 359416
        },
        {
            "buffer" : 0,
            "byteLength" : 32,
            "byteOffset" : 359464
        },
        {
            "buffer" : 0,
            "byteLength" : 12,
            "byteOffset" : 359496
        },
        {
            "buffer" : 0,
            "byteLength" : 312,
            "byteOffset" : 359508
        },
        {
            "buffer" : 0,
            "byteLength" : 312,
            "byteOffset" : 359820
        },
        {
            "buffer" : 0,
            "byteLength" : 208,
            "byteOffset" : 360132
        },
        {
            "buffer" : 0,
            "byteLength" : 120,
            "byteOffset" : 360340
        },
        {
            "buffer" : 0,
            "byteLength" : 1248,
            "byteOffset" : 360460
        },
        {
            "buffer" : 0,
            "byteLength" : 1248,
            "byteOffset" : 361708
        },
        {
            "buffer" : 0,
            "byteLength" : 832,
            "byteOffset" : 362956
        },
        {
            "buffer" : 0,
            "byteLength" : 312,
            "byteOffset" : 363788
        }
    ],
    "buffers" : [
        {
            "byteLength" : 364100,
            "uri" : "ground.bin"
        }
    ]
}
