{
    "asset" : {
        "generator" : "Khronos glTF Blender I/O v1.7.33",
        "version" : "2.0"
    },
    "scene" : 0,
    "scenes" : [
        {
            "name" : "Scene",
            "nodes" : [
                0,
                1
            ]
        }
    ],
    "nodes" : [
        {
            "mesh" : 0,
            "name" : "obj2",
            "scale" : [
                1.0597333908081055,
                1.0597333908081055,
                1.0597333908081055
            ],
            "translation" : [
                2.061028003692627,
                10.050466537475586,
                2.049267292022705
            ]
        },
        {
            "mesh" : 1,
            "name" : "obj2Sphere",
            "scale" : [
                1.0597333908081055,
                1.0597333908081055,
                1.0597333908081055
            ],
            "translation" : [
                -4.838738918304443,
                12.182683944702148,
                14.865514755249023
            ]
        }
    ],
    "materials" : [
        {
            "doubleSided" : true,
            "name" : "nft",
            "pbrMetallicRoughness" : {
                "baseColorFactor" : [
                    0.1746475100517273,
                    0.09530749917030334,
                    0.1714411824941635,
                    1
                ],
                "metallicFactor" : 0,
                "roughnessFactor" : 0.5
            }
        },
        {
            "doubleSided" : true,
            "name" : "Material.001",
            "pbrMetallicRoughness" : {
                "baseColorFactor" : [
                    0.15592652559280396,
                    0.08228269219398499,
                    0.5840786099433899,
                    1
                ],
                "metallicFactor" : 0,
                "roughnessFactor" : 0.5
            }
        }
    ],
    "meshes" : [
        {
            "name" : "Cube.001",
            "primitives" : [
                {
                    "attributes" : {
                        "POSITION" : 0,
                        "NORMAL" : 1,
                        "TEXCOORD_0" : 2
                    },
                    "indices" : 3,
                    "material" : 0
                }
            ]
        },
        {
            "name" : "Sphere",
            "primitives" : [
                {
                    "attributes" : {
                        "POSITION" : 4,
                        "NORMAL" : 5,
                        "TEXCOORD_0" : 6
                    },
                    "indices" : 7,
                    "material" : 1
                }
            ]
        }
    ],
    "accessors" : [
        {
            "bufferView" : 0,
            "componentType" : 5126,
            "count" : 122,
            "max" : [
                -3.201460361480713,
                1.4268145561218262,
                16.38356590270996
            ],
            "min" : [
                -10.138896942138672,
                0.3546784818172455,
                8.635766983032227
            ],
            "type" : "VEC3"
        },
        {
            "bufferView" : 1,
            "componentType" : 5126,
            "count" : 122,
            "type" : "VEC3"
        },
        {
            "bufferView" : 2,
            "componentType" : 5126,
            "count" : 122,
            "type" : "VEC2"
        },
        {
            "bufferView" : 3,
            "componentType" : 5123,
            "count" : 156,
            "type" : "SCALAR"
        },
        {
            "bufferView" : 4,
            "componentType" : 5126,
            "count" : 992,
            "max" : [
                1,
                1,
                1.0000001192092896
            ],
            "min" : [
                -0.9999999403953552,
                -1,
                -1
            ],
            "type" : "VEC3"
        },
        {
            "bufferView" : 5,
            "componentType" : 5126,
            "count" : 992,
            "type" : "VEC3"
        },
        {
            "bufferView" : 6,
            "componentType" : 5126,
            "count" : 992,
            "type" : "VEC2"
        },
        {
            "bufferView" : 7,
            "componentType" : 5123,
            "count" : 1440,
            "type" : "SCALAR"
        }
    ],
    "bufferViews" : [
        {
            "buffer" : 0,
            "byteLength" : 1464,
            "byteOffset" : 0
        },
        {
            "buffer" : 0,
            "byteLength" : 1464,
            "byteOffset" : 1464
        },
        {
            "buffer" : 0,
            "byteLength" : 976,
            "byteOffset" : 2928
        },
        {
            "buffer" : 0,
            "byteLength" : 312,
            "byteOffset" : 3904
        },
        {
            "buffer" : 0,
            "byteLength" : 11904,
            "byteOffset" : 4216
        },
        {
            "buffer" : 0,
            "byteLength" : 11904,
            "byteOffset" : 16120
        },
        {
            "buffer" : 0,
            "byteLength" : 7936,
            "byteOffset" : 28024
        },
        {
            "buffer" : 0,
            "byteLength" : 2880,
            "byteOffset" : 35960
        }
    ],
    "buffers" : [
        {
            "byteLength" : 38840,
            "uri" : "land2.bin"
        }
    ]
}
