{
    "asset" : {
        "generator" : "Khronos glTF Blender I/O v1.7.33",
        "version" : "2.0"
    },
    "scene" : 0,
    "scenes" : [
        {
            "name" : "Scene",
            "nodes" : [
                0,
                1,
                2
            ]
        }
    ],
    "nodes" : [
        {
            "mesh" : 0,
            "name" : "obj2",
            "scale" : [
                1.0597333908081055,
                1.0597333908081055,
                1.0597333908081055
            ]
        },
        {
            "name" : "tree2",
            "scale" : [
                1.4637774229049683,
                1.4637774229049683,
                1.4637774229049683
            ],
            "translation" : [
                -4.534605503082275,
                11.202651023864746,
                15.439384460449219
            ]
        },
        {
            "mesh" : 1,
            "name" : "leavs2",
            "rotation" : [
                -0.7098519206047058,
                -0.17855705320835114,
                -0.06760145723819733,
                0.6779806017875671
            ],
            "scale" : [
                1.0834128856658936,
                1.083412766456604,
                1.083412766456604
            ],
            "translation" : [
                -5.503591060638428,
                14.838820457458496,
                15.866622924804688
            ]
        }
    ],
    "materials" : [
        {
            "doubleSided" : true,
            "name" : "nft",
            "pbrMetallicRoughness" : {
                "baseColorFactor" : [
                    0.1746475100517273,
                    0.09530749917030334,
                    0.1714411824941635,
                    1
                ],
                "metallicFactor" : 0,
                "roughnessFactor" : 0.5
            }
        },
        {
            "doubleSided" : true,
            "name" : "leaves",
            "pbrMetallicRoughness" : {
                "baseColorFactor" : [
                    0.13013654947280884,
                    0.15292617678642273,
                    0.02415763959288597,
                    1
                ],
                "metallicFactor" : 0,
                "roughnessFactor" : 0.5
            }
        },
        {
            "doubleSided" : true,
            "name" : "Material.006",
            "pbrMetallicRoughness" : {
                "baseColorFactor" : [
                    0.13013654947280884,
                    0.15292617678642273,
                    0.02415763959288597,
                    1
                ],
                "metallicFactor" : 0,
                "roughnessFactor" : 0.5
            }
        }
    ],
    "meshes" : [
        {
            "name" : "Cube.001",
            "primitives" : [
                {
                    "attributes" : {
                        "POSITION" : 0,
                        "NORMAL" : 1,
                        "TEXCOORD_0" : 2
                    },
                    "indices" : 3,
                    "material" : 0
                }
            ]
        },
        {
            "name" : "Icosphere.010",
            "primitives" : [
                {
                    "attributes" : {
                        "POSITION" : 4,
                        "NORMAL" : 5,
                        "TEXCOORD_0" : 6
                    },
                    "indices" : 7,
                    "material" : 1
                },
                {
                    "attributes" : {
                        "POSITION" : 8,
                        "NORMAL" : 9,
                        "TEXCOORD_0" : 10
                    },
                    "indices" : 11,
                    "material" : 2
                }
            ]
        }
    ],
    "accessors" : [
        {
            "bufferView" : 0,
            "componentType" : 5126,
            "count" : 122,
            "max" : [
                -1.2566051483154297,
                10.910772323608398,
                18.317323684692383
            ],
            "min" : [
                -8.194042205810547,
                9.83863639831543,
                10.569524765014648
            ],
            "type" : "VEC3"
        },
        {
            "bufferView" : 1,
            "componentType" : 5126,
            "count" : 122,
            "type" : "VEC3"
        },
        {
            "bufferView" : 2,
            "componentType" : 5126,
            "count" : 122,
            "type" : "VEC2"
        },
        {
            "bufferView" : 3,
            "componentType" : 5123,
            "count" : 156,
            "type" : "SCALAR"
        },
        {
            "bufferView" : 4,
            "componentType" : 5126,
            "count" : 300,
            "max" : [
                2.079345703125,
                0.6982052326202393,
                0.25519201159477234
            ],
            "min" : [
                -0.2683275043964386,
                -0.33138108253479004,
                -1.3798965215682983
            ],
            "type" : "VEC3"
        },
        {
            "bufferView" : 5,
            "componentType" : 5126,
            "count" : 300,
            "type" : "VEC3"
        },
        {
            "bufferView" : 6,
            "componentType" : 5126,
            "count" : 300,
            "type" : "VEC2"
        },
        {
            "bufferView" : 7,
            "componentType" : 5123,
            "count" : 300,
            "type" : "SCALAR"
        },
        {
            "bufferView" : 8,
            "componentType" : 5126,
            "count" : 240,
            "max" : [
                0.7106998562812805,
                1.0565431118011475,
                0.6128301620483398
            ],
            "min" : [
                -0.3743842840194702,
                0.22475412487983704,
                -0.4909666180610657
            ],
            "type" : "VEC3"
        },
        {
            "bufferView" : 9,
            "componentType" : 5126,
            "count" : 240,
            "type" : "VEC3"
        },
        {
            "bufferView" : 10,
            "componentType" : 5126,
            "count" : 240,
            "type" : "VEC2"
        },
        {
            "bufferView" : 11,
            "componentType" : 5123,
            "count" : 240,
            "type" : "SCALAR"
        }
    ],
    "bufferViews" : [
        {
            "buffer" : 0,
            "byteLength" : 1464,
            "byteOffset" : 0
        },
        {
            "buffer" : 0,
            "byteLength" : 1464,
            "byteOffset" : 1464
        },
        {
            "buffer" : 0,
            "byteLength" : 976,
            "byteOffset" : 2928
        },
        {
            "buffer" : 0,
            "byteLength" : 312,
            "byteOffset" : 3904
        },
        {
            "buffer" : 0,
            "byteLength" : 3600,
            "byteOffset" : 4216
        },
        {
            "buffer" : 0,
            "byteLength" : 3600,
            "byteOffset" : 7816
        },
        {
            "buffer" : 0,
            "byteLength" : 2400,
            "byteOffset" : 11416
        },
        {
            "buffer" : 0,
            "byteLength" : 600,
            "byteOffset" : 13816
        },
        {
            "buffer" : 0,
            "byteLength" : 2880,
            "byteOffset" : 14416
        },
        {
            "buffer" : 0,
            "byteLength" : 2880,
            "byteOffset" : 17296
        },
        {
            "buffer" : 0,
            "byteLength" : 1920,
            "byteOffset" : 20176
        },
        {
            "buffer" : 0,
            "byteLength" : 480,
            "byteOffset" : 22096
        }
    ],
    "buffers" : [
        {
            "byteLength" : 22576,
            "uri" : "land2.bin"
        }
    ]
}
