{
    "asset" : {
        "generator" : "Khronos glTF Blender I/O v1.7.33",
        "version" : "2.0"
    },
    "scene" : 0,
    "scenes" : [
        {
            "name" : "Scene",
            "nodes" : [
                0,
                1,
                2
            ]
        }
    ],
    "nodes" : [
        {
            "mesh" : 0,
            "name" : "obj1",
            "scale" : [
                1.0597333908081055,
                1.0597333908081055,
                1.0597333908081055
            ]
        },
        {
            "mesh" : 1,
            "name" : "tree1",
            "rotation" : [
                0,
                -0.9886904954910278,
                0,
                -0.1499704271554947
            ],
            "scale" : [
                1.2705904245376587,
                1.3084100484848022,
                1.2705904245376587
            ],
            "translation" : [
                -30.626012802124023,
                1.1159499883651733,
                -3.4723706245422363
            ]
        },
        {
            "mesh" : 2,
            "name" : "leaves1",
            "rotation" : [
                0.17329375445842743,
                -0.6435346603393555,
                -0.6916856169700623,
                -0.2782147228717804
            ],
            "scale" : [
                0.9404258131980896,
                0.9404257535934448,
                0.9404257535934448
            ],
            "translation" : [
                -29.7127742767334,
                4.2722249031066895,
                -3.577113151550293
            ]
        }
    ],
    "materials" : [
        {
            "doubleSided" : true,
            "name" : "nft.001",
            "pbrMetallicRoughness" : {
                "baseColorFactor" : [
                    0.1746475100517273,
                    0.09530749917030334,
                    0.1714411824941635,
                    1
                ],
                "metallicFactor" : 0,
                "roughnessFactor" : 0.5
            }
        },
        {
            "doubleSided" : true,
            "name" : "Material.003",
            "pbrMetallicRoughness" : {
                "baseColorFactor" : [
                    0.011059097945690155,
                    0.014669224619865417,
                    0.003116207430139184,
                    1
                ],
                "metallicFactor" : 0,
                "roughnessFactor" : 0.5
            }
        },
        {
            "doubleSided" : true,
            "name" : "leaves",
            "pbrMetallicRoughness" : {
                "baseColorFactor" : [
                    0.13013654947280884,
                    0.15292617678642273,
                    0.02415763959288597,
                    1
                ],
                "metallicFactor" : 0,
                "roughnessFactor" : 0.5
            }
        },
        {
            "doubleSided" : true,
            "name" : "Material.006",
            "pbrMetallicRoughness" : {
                "baseColorFactor" : [
                    0.13013654947280884,
                    0.15292617678642273,
                    0.02415763959288597,
                    1
                ],
                "metallicFactor" : 0,
                "roughnessFactor" : 0.5
            }
        }
    ],
    "meshes" : [
        {
            "name" : "Cube.005",
            "primitives" : [
                {
                    "attributes" : {
                        "POSITION" : 0,
                        "NORMAL" : 1,
                        "TEXCOORD_0" : 2
                    },
                    "indices" : 3,
                    "material" : 0
                }
            ]
        },
        {
            "name" : "Cube",
            "primitives" : [
                {
                    "attributes" : {
                        "POSITION" : 4,
                        "NORMAL" : 5
                    },
                    "indices" : 6,
                    "material" : 1
                }
            ]
        },
        {
            "name" : "Icosphere.003",
            "primitives" : [
                {
                    "attributes" : {
                        "POSITION" : 7,
                        "NORMAL" : 8,
                        "TEXCOORD_0" : 9
                    },
                    "indices" : 10,
                    "material" : 2
                },
                {
                    "attributes" : {
                        "POSITION" : 11,
                        "NORMAL" : 12,
                        "TEXCOORD_0" : 13
                    },
                    "indices" : 14,
                    "material" : 3
                }
            ]
        }
    ],
    "accessors" : [
        {
            "bufferView" : 0,
            "componentType" : 5126,
            "count" : 86,
            "max" : [
                -25.87165641784668,
                1.258880376815796,
                -0.846508264541626
            ],
            "min" : [
                -31.862218856811523,
                0.7712569832801819,
                -6.082703113555908
            ],
            "type" : "VEC3"
        },
        {
            "bufferView" : 1,
            "componentType" : 5126,
            "count" : 86,
            "type" : "VEC3"
        },
        {
            "bufferView" : 2,
            "componentType" : 5126,
            "count" : 86,
            "type" : "VEC2"
        },
        {
            "bufferView" : 3,
            "componentType" : 5123,
            "count" : 108,
            "type" : "SCALAR"
        },
        {
            "bufferView" : 4,
            "componentType" : 5126,
            "count" : 3018,
            "max" : [
                0.6829631924629211,
                2.6568329334259033,
                1.0009129047393799
            ],
            "min" : [
                -0.6871422529220581,
                0.012708192691206932,
                -0.12755578756332397
            ],
            "type" : "VEC3"
        },
        {
            "bufferView" : 5,
            "componentType" : 5126,
            "count" : 3018,
            "type" : "VEC3"
        },
        {
            "bufferView" : 6,
            "componentType" : 5123,
            "count" : 4509,
            "type" : "SCALAR"
        },
        {
            "bufferView" : 7,
            "componentType" : 5126,
            "count" : 300,
            "max" : [
                2.079345703125,
                0.6982052326202393,
                0.25519201159477234
            ],
            "min" : [
                -0.2683275043964386,
                -0.33138108253479004,
                -1.3798965215682983
            ],
            "type" : "VEC3"
        },
        {
            "bufferView" : 8,
            "componentType" : 5126,
            "count" : 300,
            "type" : "VEC3"
        },
        {
            "bufferView" : 9,
            "componentType" : 5126,
            "count" : 300,
            "type" : "VEC2"
        },
        {
            "bufferView" : 10,
            "componentType" : 5123,
            "count" : 300,
            "type" : "SCALAR"
        },
        {
            "bufferView" : 11,
            "componentType" : 5126,
            "count" : 240,
            "max" : [
                0.7106998562812805,
                1.0565431118011475,
                0.6128301620483398
            ],
            "min" : [
                -0.3743842840194702,
                0.22475412487983704,
                -0.4909666180610657
            ],
            "type" : "VEC3"
        },
        {
            "bufferView" : 12,
            "componentType" : 5126,
            "count" : 240,
            "type" : "VEC3"
        },
        {
            "bufferView" : 13,
            "componentType" : 5126,
            "count" : 240,
            "type" : "VEC2"
        },
        {
            "bufferView" : 14,
            "componentType" : 5123,
            "count" : 240,
            "type" : "SCALAR"
        }
    ],
    "bufferViews" : [
        {
            "buffer" : 0,
            "byteLength" : 1032,
            "byteOffset" : 0
        },
        {
            "buffer" : 0,
            "byteLength" : 1032,
            "byteOffset" : 1032
        },
        {
            "buffer" : 0,
            "byteLength" : 688,
            "byteOffset" : 2064
        },
        {
            "buffer" : 0,
            "byteLength" : 216,
            "byteOffset" : 2752
        },
        {
            "buffer" : 0,
            "byteLength" : 36216,
            "byteOffset" : 2968
        },
        {
            "buffer" : 0,
            "byteLength" : 36216,
            "byteOffset" : 39184
        },
        {
            "buffer" : 0,
            "byteLength" : 9018,
            "byteOffset" : 75400
        },
        {
            "buffer" : 0,
            "byteLength" : 3600,
            "byteOffset" : 84420
        },
        {
            "buffer" : 0,
            "byteLength" : 3600,
            "byteOffset" : 88020
        },
        {
            "buffer" : 0,
            "byteLength" : 2400,
            "byteOffset" : 91620
        },
        {
            "buffer" : 0,
            "byteLength" : 600,
            "byteOffset" : 94020
        },
        {
            "buffer" : 0,
            "byteLength" : 2880,
            "byteOffset" : 94620
        },
        {
            "buffer" : 0,
            "byteLength" : 2880,
            "byteOffset" : 97500
        },
        {
            "buffer" : 0,
            "byteLength" : 1920,
            "byteOffset" : 100380
        },
        {
            "buffer" : 0,
            "byteLength" : 480,
            "byteOffset" : 102300
        }
    ],
    "buffers" : [
        {
            "byteLength" : 102780,
            "uri" : "land1.bin"
        }
    ]
}
